# xmcd
#
# Track frame offsets:
#	150
#	10510
#	20449
#	30615
#	44520
#	55571
#	66675
#	83505
#	100131
#	113712
#	125285
#	139135
#	154798
#	164679
#	177754
#	189154
#	200943
#	214781
#	226800
#	235845
#
# Disc length: 3334 seconds
#
# Revision: 1
# Processed by: cddbd v1.5.2PL0 Copyright (c) Steve Scherf et al.
# Submitted via: audiograbber 1.83.01
#
DISCID=070d0414
DTITLE=Country - CD 3-3] - Country - Maxi 3CD
DYEAR=2011
DGENRE=Country
TTITLE0=01 - Charlie Walker - Pick Me Up On Your Way
TTITLE1=02 - Conway Twitty - It's Only Make Believe
TTITLE2=03 - Dolly Parton - Release Me
TTITLE3=04 - Lacy J. Dalton - Tennessee Waltz
TTITLE4=05 - Jack Greene - There Goes My Everything
TTITLE5=06 - Johnny Cash - Cry ! Cry ! Cry !
TTITLE6=07 - Lynn Anderson - Blue Bayou
TTITLE7=08 - Tanya Tucker - Little Things
TTITLE8=09 - Willie Nelson - The Last Letter
TTITLE9=10 - Don Gibson - I Can't Stop Loving You
TTITLE10=11 - Kitty Wells - Lonely Street
TTITLE11=12 - Boxcar Willie - Mule Train
TTITLE12=13 - Faron Young - Country Girl
TTITLE13=14 - Dave Duddley - Pool Shark
TTITLE14=15 - Doc Watson - Tom Dooley
TTITLE15=16 - Donna Fargo - The Happiest Girl In The USA
TTITLE16=17 - Doug Stone - Addicted To A Dollar
TTITLE17=18 - Waylon Jennings - Don't Think Twice, It's Allright
TTITLE18=19 - Frankie Laine - Rawhide
TTITLE19=20 - T Graham Brown - Darlene
EXTD=sampler
EXTT0=
EXTT1=
EXTT2=
EXTT3=
EXTT4=
EXTT5=
EXTT6=
EXTT7=
EXTT8=
EXTT9=
EXTT10=
EXTT11=
EXTT12=
EXTT13=
EXTT14=
EXTT15=
EXTT16=
EXTT17=
EXTT18=
EXTT19=
PLAYORDER=
